REM DIRINDEX 1\2,1\3,1\4,1\5
REM DIRNAME folder01,folder02,folder03,folder04,folder05
TITLE ""
FILE "1800_075.mp3" MP3
  TRACK 01 AUDIO
    TITLE "2:cjc044_1913"
    INDEX 01 00:00:00
  TRACK 02 AUDIO
    TITLE "0:"
    INDEX 01 00:01:05
  TRACK 03 AUDIO
    TITLE "3:cjc044_1914"
    INDEX 01 00:01:62
  TRACK 04 AUDIO
    TITLE "0:"
    INDEX 01 00:03:00
  TRACK 05 AUDIO
    TITLE "4:cjc044_1915"
    INDEX 01 00:03:59
  TRACK 06 AUDIO
    TITLE "0:"
    INDEX 01 00:04:74
  TRACK 07 AUDIO
    TITLE "5:cjc044_1916"
    INDEX 01 00:05:46
  TRACK 08 AUDIO
    TITLE "0:"
    INDEX 01 00:09:22
  TRACK 09 AUDIO
    TITLE "2:cjc044_1917"
    INDEX 01 00:11:05
  TRACK 10 AUDIO
    TITLE "0:"
    INDEX 01 00:12:26
  TRACK 11 AUDIO
    TITLE "3:cjc044_1918"
    INDEX 01 00:13:14
  TRACK 12 AUDIO
    TITLE "0:"
    INDEX 01 00:14:39
  TRACK 13 AUDIO
    TITLE "4:cjc044_1919"
    INDEX 01 00:15:23
  TRACK 14 AUDIO
    TITLE "0:"
    INDEX 01 00:16:38
  TRACK 15 AUDIO
    TITLE "5:cjc044_1920"
    INDEX 01 00:17:18
  TRACK 16 AUDIO
    TITLE "0:"
    INDEX 01 00:21:25
  TRACK 17 AUDIO
    TITLE "2:cjc044_1921"
    INDEX 01 00:23:20
  TRACK 18 AUDIO
    TITLE "0:"
    INDEX 01 00:24:41
  TRACK 19 AUDIO
    TITLE "3:cjc044_1922"
    INDEX 01 00:25:23
  TRACK 20 AUDIO
    TITLE "0:"
    INDEX 01 00:26:30
  TRACK 21 AUDIO
    TITLE "4:cjc044_1923"
    INDEX 01 00:27:12
  TRACK 22 AUDIO
    TITLE "0:"
    INDEX 01 00:28:29
  TRACK 23 AUDIO
    TITLE "5:cjc044_1924"
    INDEX 01 00:29:03
  TRACK 24 AUDIO
    TITLE "0:"
    INDEX 01 00:32:13
  TRACK 25 AUDIO
    TITLE "2:cjc044_1925"
    INDEX 01 00:33:73
  TRACK 26 AUDIO
    TITLE "0:"
    INDEX 01 00:35:10
  TRACK 27 AUDIO
    TITLE "3:cjc044_1926"
    INDEX 01 00:35:68
  TRACK 28 AUDIO
    TITLE "0:"
    INDEX 01 00:37:10
  TRACK 29 AUDIO
    TITLE "4:cjc044_1927"
    INDEX 01 00:37:67
  TRACK 30 AUDIO
    TITLE "0:"
    INDEX 01 00:39:07
  TRACK 31 AUDIO
    TITLE "5:cjc044_1928"
    INDEX 01 00:39:52
  TRACK 32 AUDIO
    TITLE "0:"
    INDEX 01 00:42:41
  TRACK 33 AUDIO
    TITLE "2:cjc044_1929"
    INDEX 01 00:44:30
  TRACK 34 AUDIO
    TITLE "0:"
    INDEX 01 00:45:55
  TRACK 35 AUDIO
    TITLE "3:cjc044_1930"
    INDEX 01 00:46:37
  TRACK 36 AUDIO
    TITLE "0:"
    INDEX 01 00:47:48
  TRACK 37 AUDIO
    TITLE "4:cjc044_1931"
    INDEX 01 00:48:30
  TRACK 38 AUDIO
    TITLE "0:"
    INDEX 01 00:49:57
  TRACK 39 AUDIO
    TITLE "5:cjc044_1932"
    INDEX 01 00:50:29
  TRACK 40 AUDIO
    TITLE "0:"
    INDEX 01 00:53:49
  TRACK 41 AUDIO
    TITLE "2:cjc044_1933"
    INDEX 01 00:55:32
  TRACK 42 AUDIO
    TITLE "0:"
    INDEX 01 00:56:55
  TRACK 43 AUDIO
    TITLE "3:cjc044_1934"
    INDEX 01 00:57:45
  TRACK 44 AUDIO
    TITLE "0:"
    INDEX 01 00:59:26
  TRACK 45 AUDIO
    TITLE "4:cjc044_1935"
    INDEX 01 01:00:06
  TRACK 46 AUDIO
    TITLE "0:"
    INDEX 01 01:01:29
  TRACK 47 AUDIO
    TITLE "5:cjc044_1936"
    INDEX 01 01:02:03
  TRACK 48 AUDIO
    TITLE "0:"
    INDEX 01 01:05:30
  TRACK 49 AUDIO
    TITLE "2:cjc044_1937"
    INDEX 01 01:07:17
  TRACK 50 AUDIO
    TITLE "0:"
    INDEX 01 01:08:31
  TRACK 51 AUDIO
    TITLE "3:cjc044_1938"
    INDEX 01 01:09:14
  TRACK 52 AUDIO
    TITLE "0:"
    INDEX 01 01:10:04
  TRACK 53 AUDIO
    TITLE "4:cjc044_1939"
    INDEX 01 01:10:63
  TRACK 54 AUDIO
    TITLE "0:"
    INDEX 01 01:12:05
  TRACK 55 AUDIO
    TITLE "5:cjc044_1940"
    INDEX 01 01:12:48
  TRACK 56 AUDIO
    TITLE "0:"
    INDEX 01 01:15:33
  TRACK 57 AUDIO
    TITLE "2:cjc044_1941"
    INDEX 01 01:17:16
  TRACK 58 AUDIO
    TITLE "0:"
    INDEX 01 01:18:23
  TRACK 59 AUDIO
    TITLE "3:cjc044_1942"
    INDEX 01 01:19:01
  TRACK 60 AUDIO
    TITLE "0:"
    INDEX 01 01:19:66
  TRACK 61 AUDIO
    TITLE "4:cjc044_1943"
    INDEX 01 01:20:48
  TRACK 62 AUDIO
    TITLE "0:"
    INDEX 01 01:21:55
  TRACK 63 AUDIO
    TITLE "5:cjc044_1944"
    INDEX 01 01:22:39
  TRACK 64 AUDIO
    TITLE "0:"
    INDEX 01 01:26:13
